PathFileType	4	(X/Y/Z)	C:\Users\86182\Documents\cortex\Trimmed_M1_H6.trc
DataRate	CameraRate	NumFrames	NumMarkers	Units	OrigDataRate	OrigDataStartFrame	OrigNumFrames
100.00	100.00	       169	2	mm	100.00	571	       951
Frame#	Time	gripper			box			
		X1	Y1	Z1	X2	Y2	Z2	

571	5.700	220.91177	203.65440	287.02255	227.21666	202.46451	135.85237	
572	5.710	220.91177	203.65440	287.02255	227.21666	202.46451	135.85237	
573	5.720	220.91177	203.65440	287.02255	227.21666	202.46451	135.85237	
574	5.730	220.91177	203.65440	287.02255	227.21666	202.46451	135.85237	
575	5.740	220.91177	203.65440	287.02255	227.21666	202.46451	135.85237	
576	5.750	220.91177	203.65440	287.02255	227.20232	202.45796	135.85693	
577	5.760	220.90279	203.64998	287.01645	227.19511	202.45467	135.85922	
578	5.770	220.89598	203.64664	287.01187	227.21666	202.46451	135.85237	
579	5.780	220.91177	203.65440	287.02255	227.21666	202.46451	135.85237	
580	5.790	220.89825	203.64775	287.01340	227.21666	202.46451	135.85237	
581	5.800	220.88925	203.64333	287.00732	227.21666	202.46451	135.85237	
582	5.810	220.90279	203.64998	287.01645	227.15184	202.43491	135.87300	
583	5.820	220.91177	203.65440	287.02255	227.21666	202.46451	135.85237	
584	5.830	220.91177	203.65440	287.02255	227.21666	202.46451	135.85237	
585	5.840	220.91177	203.65440	287.02255	227.21666	202.46451	135.85237	
586	5.850	220.91177	203.65440	287.02255	227.21666	202.46451	135.85237	
587	5.860	220.91177	203.65440	287.02255	227.20232	202.45796	135.85693	
588	5.870	220.91177	203.65440	287.02255	227.21666	202.46451	135.85237	
589	5.880	220.88480	203.64113	287.00430	227.21666	202.46451	135.85237	
590	5.890	220.89825	203.64775	287.01340	227.21666	202.46451	135.85237	
591	5.900	220.89825	203.64775	287.01340	227.21666	202.46451	135.85237	
592	5.910	220.90279	203.64998	287.01645	227.21666	202.46451	135.85237	
593	5.920	220.91177	203.65440	287.02255	227.21666	202.46451	135.85237	
594	5.930	220.91177	203.65440	287.02255	227.21666	202.46451	135.85237	
595	5.940	220.90279	203.64998	287.01645	227.21666	202.46451	135.85237	
596	5.950	220.91177	203.65440	287.02255	227.21666	202.46451	135.85237	
597	5.960	220.91177	203.65440	287.02255	227.21666	202.46451	135.85237	
598	5.970	220.89153	203.64444	287.00885	227.21666	202.46451	135.85237	
599	5.980	220.89372	203.64552	287.01038	227.21666	202.46451	135.85237	
600	5.990	220.88260	203.64005	287.00278	227.18912	202.45145	135.86508	
601	6.000	220.89153	203.64444	287.00885	227.21666	202.46451	135.85237	
602	6.010	220.90732	203.65221	287.01947	227.21666	202.46451	135.85237	
603	6.020	220.90952	203.65329	287.02106	227.21666	202.46451	135.85237	
604	6.030	220.91177	203.65440	287.02255	227.21666	202.46451	135.85237	
605	6.040	220.90279	203.64998	287.01645	227.21666	202.46451	135.85237	
606	6.050	220.91177	203.65440	287.02255	227.21666	202.46451	135.85237	
607	6.060	220.91177	203.65440	287.02255	227.21666	202.46451	135.85237	
608	6.070	220.91177	203.65440	287.02255	227.21666	202.46451	135.85237	
609	6.080	220.91177	203.65440	287.02255	227.21666	202.46451	135.85237	
610	6.090	220.91177	203.65440	287.02255	227.21666	202.46451	135.85237	
611	6.100	220.89598	203.64664	287.01187	227.21666	202.46451	135.85237	
612	6.110	220.91177	203.65440	287.02255	227.21666	202.46451	135.85237	
613	6.120	220.88260	203.64005	287.00278	227.21666	202.46451	135.85237	
614	6.130	220.90952	203.65329	287.02106	227.21666	202.46451	135.85237	
615	6.140	220.91177	203.65440	287.02255	227.21666	202.46451	135.85237	
616	6.150	220.89825	203.64775	287.01340	227.18077	202.44812	135.86380	
617	6.160	220.89598	203.64664	287.01187	227.21666	202.46451	135.85237	
618	6.170	220.90045	203.64883	287.01495	227.21666	202.46451	135.85237	
619	6.180	220.89372	203.64552	287.01038	227.21666	202.46451	135.85237	
620	6.190	220.90732	203.65221	287.01947	227.21666	202.46451	135.85237	
621	6.200	220.90732	203.65221	287.01947	227.21666	202.46451	135.85237	
622	6.210	220.90045	203.64883	287.01495	227.21666	202.46451	135.85237	
623	6.220	220.90952	203.65329	287.02106	227.21666	202.46451	135.85237	
624	6.230	220.88705	203.64224	287.00580	227.20946	202.46121	135.85466	
625	6.240	220.90504	203.65109	287.01797	227.21666	202.46451	135.85237	
626	6.250	220.89598	203.64664	287.01187	227.21666	202.46451	135.85237	
627	6.260	220.91177	203.65440	287.02255	227.21666	202.46451	135.85237	
628	6.270	220.91177	203.65440	287.02255	227.21666	202.46451	135.85237	
629	6.280	220.91177	203.65440	287.02255	227.21666	202.46451	135.85237	
630	6.290	220.91177	203.65440	287.02255	227.21666	202.46451	135.85237	
631	6.300	220.91177	203.65440	287.02255	227.21666	202.46451	135.85237	
632	6.310	220.90279	203.64998	287.01645	227.21666	202.46451	135.85237	
633	6.320	220.91177	203.65440	287.02255	227.21666	202.46451	135.85237	
634	6.330	220.91177	203.65440	287.02255	227.21666	202.46451	135.85237	
635	6.340	220.89825	203.64775	287.01340	227.21666	202.46451	135.85237	
636	6.350	220.89372	203.64552	287.01038	227.21666	202.46451	135.85237	
637	6.360	220.90504	203.65109	287.01797	227.21666	202.46451	135.85237	
638	6.370	220.91177	203.65440	287.02255	227.21666	202.46451	135.85237	
639	6.380	220.89372	203.64552	287.01038	227.21666	202.46451	135.85237	
640	6.390	220.91177	203.65440	287.02255	227.21666	202.46451	135.85237	
641	6.400	220.91177	203.65440	287.02255	227.21666	202.46451	135.85237	
642	6.410	220.90045	203.64883	287.01495	227.21666	202.46451	135.85237	
643	6.420	220.91177	203.65440	287.02255	227.21666	202.46451	135.85237	
644	6.430	220.91177	203.65440	287.02255	227.21666	202.46451	135.85237	
645	6.440	220.91177	203.65440	287.02255	227.21666	202.46451	135.85237	
646	6.450	220.90504	203.65109	287.01797	227.21666	202.46451	135.85237	
647	6.460	220.91177	203.65440	287.02255	227.21666	202.46451	135.85237	
648	6.470	220.91177	203.65440	287.02255	227.21002	202.46123	135.85648	
649	6.480	220.90952	203.65329	287.02106	227.21666	202.46451	135.85237	
650	6.490	220.90045	203.64883	287.01495	227.21666	202.46451	135.85237	
651	6.500	220.90504	203.65109	287.01797	227.21666	202.46451	135.85237	
652	6.510	220.88925	203.64333	287.00732	227.21666	202.46451	135.85237	
653	6.520	220.90279	203.64998	287.01645	227.21666	202.46451	135.85237	
654	6.530	220.90732	203.65221	287.01947	227.21666	202.46451	135.85237	
655	6.540	220.90504	203.65109	287.01797	227.21666	202.46451	135.85237	
656	6.550	220.91177	203.65440	287.02255	227.21666	202.46451	135.85237	
657	6.560	220.90279	203.64998	287.01645	227.21666	202.46451	135.85237	
658	6.570	220.90732	203.65221	287.01947	227.21666	202.46451	135.85237	
659	6.580	220.90732	203.65221	287.01947	227.20946	202.46121	135.85466	
660	6.590	220.90504	203.65109	287.01797	227.17355	202.44482	135.86609	
661	6.600	220.91177	203.65440	287.02255	227.21666	202.46451	135.85237	
662	6.610	220.88925	203.64333	287.00732	227.21666	202.46451	135.85237	
663	6.620	220.91177	203.65440	287.02255	227.20232	202.45796	135.85693	
664	6.630	220.90504	203.65109	287.01797	227.21666	202.46451	135.85237	
665	6.640	220.91177	203.65440	287.02255	227.21666	202.46451	135.85237	
666	6.650	220.91177	203.65440	287.02255	227.21666	202.46451	135.85237	
667	6.660	220.91177	203.65440	287.02255	227.21666	202.46451	135.85237	
668	6.670	220.89598	203.64664	287.01187	227.21666	202.46451	135.85237	
669	6.680	220.91177	203.65440	287.02255	227.21666	202.46451	135.85237	
670	6.690	220.91177	203.65440	287.02255	227.21666	202.46451	135.85237	
671	6.700	220.90279	203.64998	287.01645	227.21666	202.46451	135.85237	
672	6.710	220.90732	203.65221	287.01947	227.21666	202.46451	135.85237	
673	6.720	220.91177	203.65440	287.02255	227.21666	202.46451	135.85237	
674	6.730	220.88260	203.64005	287.00278	227.21666	202.46451	135.85237	
675	6.740	220.90952	203.65329	287.02106	227.18797	202.45142	135.86150	
676	6.750	220.90504	203.65109	287.01797	227.17355	202.44482	135.86609	
677	6.760	220.90045	203.64883	287.01495	227.21666	202.46451	135.85237	
678	6.770	220.90045	203.64883	287.01495	227.21666	202.46451	135.85237	
679	6.780	220.90279	203.64998	287.01645	227.21666	202.46451	135.85237	
680	6.790	220.88480	203.64113	287.00430	227.21666	202.46451	135.85237	
681	6.800	220.91177	203.65440	287.02255	227.21666	202.46451	135.85237	
682	6.810	220.88260	203.64005	287.00278	227.21666	202.46451	135.85237	
683	6.820	220.88705	203.64224	287.00580	227.21666	202.46451	135.85237	
684	6.830	220.90504	203.65109	287.01797	227.21666	202.46451	135.85237	
685	6.840	220.91177	203.65440	287.02255	227.21666	202.46451	135.85237	
686	6.850	220.89153	203.64444	287.00885	227.21666	202.46451	135.85237	
687	6.860	220.88925	203.64333	287.00732	227.21666	202.46451	135.85237	
688	6.870	220.89372	203.64552	287.01038	227.20946	202.46121	135.85466	
689	6.880	220.91177	203.65440	287.02255	227.21666	202.46451	135.85237	
690	6.890	220.91177	203.65440	287.02255	227.21666	202.46451	135.85237	
691	6.900	220.91177	203.65440	287.02255	227.21666	202.46451	135.85237	
692	6.910	220.91177	203.65440	287.02255	227.21666	202.46451	135.85237	
693	6.920	220.90279	203.64998	287.01645	227.21666	202.46451	135.85237	
694	6.930	220.91177	203.65440	287.02255	227.18077	202.44812	135.86380	
695	6.940	220.91177	203.65440	287.02255	227.21666	202.46451	135.85237	
696	6.950	220.89372	203.64552	287.01038	227.21666	202.46451	135.85237	
697	6.960	220.89825	203.64775	287.01340	227.21666	202.46451	135.85237	
698	6.970	220.89153	203.64444	287.00885	227.21666	202.46451	135.85237	
699	6.980	220.89598	203.64664	287.01187	227.21666	202.46451	135.85237	
700	6.990	220.89153	203.64444	287.00885	227.21666	202.46451	135.85237	
701	7.000	220.89825	203.64775	287.01340	227.21666	202.46451	135.85237	
702	7.010	220.91177	203.65440	287.02255	227.21666	202.46451	135.85237	
703	7.020	220.90279	203.64998	287.01645	227.21666	202.46451	135.85237	
704	7.030	220.89153	203.64444	287.00885	227.21666	202.46451	135.85237	
705	7.040	220.91177	203.65440	287.02255	227.20946	202.46121	135.85466	
706	7.050	220.89825	203.64775	287.01340	227.21666	202.46451	135.85237	
707	7.060	220.91177	203.65440	287.02255	227.21666	202.46451	135.85237	
708	7.070	220.89598	203.64664	287.01187	227.21002	202.46123	135.85648	
709	7.080	220.90504	203.65109	287.01797	227.21666	202.46451	135.85237	
710	7.090	220.90279	203.64998	287.01645	227.21666	202.46451	135.85237	
711	7.100	220.90504	203.65109	287.01797	227.21666	202.46451	135.85237	
712	7.110	220.91177	203.65440	287.02255	227.21666	202.46451	135.85237	
713	7.120	220.91177	203.65440	287.02255	227.21666	202.46451	135.85237	
714	7.130	220.88033	203.63893	287.00125	227.21666	202.46451	135.85237	
715	7.140	220.91177	203.65440	287.02255	227.21666	202.46451	135.85237	
716	7.150	220.91177	203.65440	287.02255	227.21666	202.46451	135.85237	
717	7.160	220.88480	203.64113	287.00430	227.21666	202.46451	135.85237	
718	7.170	220.91177	203.65440	287.02255	227.21666	202.46451	135.85237	
719	7.180	220.88925	203.64333	287.00732	227.21666	202.46451	135.85237	
720	7.190	220.88705	203.64224	287.00580	227.21666	202.46451	135.85237	
721	7.200	220.88925	203.64333	287.00732	227.21666	202.46451	135.85237	
722	7.210	220.90045	203.64883	287.01495	227.21666	202.46451	135.85237	
723	7.220	220.90045	203.64883	287.01495	227.21666	202.46451	135.85237	
724	7.230	220.89825	203.64775	287.01340	227.21666	202.46451	135.85237	
725	7.240	220.91177	203.65440	287.02255	227.21666	202.46451	135.85237	
726	7.250	220.87813	203.63785	286.99973	227.21666	202.46451	135.85237	
727	7.260	220.90279	203.64998	287.01645	227.21666	202.46451	135.85237	
728	7.270	220.91177	203.65440	287.02255	227.21666	202.46451	135.85237	
729	7.280	220.90732	203.65221	287.01947	227.21666	202.46451	135.85237	
730	7.290	220.90045	203.64883	287.01495	227.21666	202.46451	135.85237	
731	7.300	220.90504	203.65109	287.01797	227.21666	202.46451	135.85237	
732	7.310	220.89825	203.64775	287.01340	227.21666	202.46451	135.85237	
733	7.320	220.90732	203.65221	287.01947	227.21666	202.46451	135.85237	
734	7.330	220.91177	203.65440	287.02255	227.21666	202.46451	135.85237	
735	7.340	220.91177	203.65440	287.02255	227.21666	202.46451	135.85237	
736	7.350	220.91177	203.65440	287.02255	227.21666	202.46451	135.85237	
737	7.360	220.91177	203.65440	287.02255	227.21666	202.46451	135.85237	
738	7.370	220.91177	203.65440	287.02255	227.21666	202.46451	135.85237	
739	7.380	220.91177	203.65440	287.02255	227.21666	202.46451	135.85237	
